<?xml version="1.0" encoding="UTF-8" standalone="no"?>
<svg
   xmlns:dc="http://purl.org/dc/elements/1.1/"
   xmlns:cc="http://creativecommons.org/ns#"
   xmlns:rdf="http://www.w3.org/1999/02/22-rdf-syntax-ns#"
   xmlns:svg="http://www.w3.org/2000/svg"
   xmlns="http://www.w3.org/2000/svg"
   xmlns:sodipodi="http://sodipodi.sourceforge.net/DTD/sodipodi-0.dtd"
   xmlns:inkscape="http://www.inkscape.org/namespaces/inkscape"
   width="276"
   height="168"
   viewBox="0 0 73.024998 44.450003"
   version="1.1"
   id="svg996"
   sodipodi:docname="project_header_div_green.svg"
   inkscape:version="1.0 (4035a4fb49, 2020-05-01)">
  <defs
     id="defs990" />
  <sodipodi:namedview
     id="base"
     pagecolor="#ffffff"
     bordercolor="#666666"
     borderopacity="1.0"
     inkscape:pageopacity="0.0"
     inkscape:pageshadow="2"
     inkscape:zoom="1.4"
     inkscape:cx="95.817763"
     inkscape:cy="167.41925"
     inkscape:document-units="mm"
     inkscape:current-layer="layer1"
     inkscape:document-rotation="0"
     showgrid="false"
     units="px"
     inkscape:window-width="1920"
     inkscape:window-height="1017"
     inkscape:window-x="1912"
     inkscape:window-y="-8"
     inkscape:window-maximized="1" />
  <metadata
     id="metadata993">
    <rdf:RDF>
      <cc:Work
         rdf:about="">
        <dc:format>image/svg+xml</dc:format>
        <dc:type
           rdf:resource="http://purl.org/dc/dcmitype/StillImage" />
        <dc:title />
      </cc:Work>
    </rdf:RDF>
  </metadata>
  <g
     inkscape:label="Layer 1"
     inkscape:groupmode="layer"
     id="layer1">
    <path
       id="rect1559"
       style="opacity:1;fill:#30bf44;fill-opacity:1;stroke-width:0.0252113"
       d="M 0.09702606,0 H 73.022468 l 0.0029,31.129353 -72.92830794,13.100494 z"
       sodipodi:nodetypes="ccccc" />
    <path
       style="display:inline;opacity:0.177057;fill:#000000;stroke:#000000;stroke-width:0.353364;stroke-linecap:butt;stroke-linejoin:miter;stroke-miterlimit:4;stroke-dasharray:none;stroke-opacity:1"
       d="m 38.997147,25.569282 c 1.025519,0.892415 1.880159,1.97273 3.589279,2.10458 1.581536,-0.34563 3.080808,-0.993098 4.132431,-3.317187 1.693824,-3.11543 3.055096,-3.152966 4.458341,-3.578704 1.011244,-0.09517 2.016225,0.06517 2.999169,1.12674 0.84119,-0.726621 2.023894,-0.910805 3.312554,-0.927325 1.558542,0.188198 3.003442,1.282873 4.27136,3.799162 0.66458,2.111015 2.086588,3.028138 3.84262,3.41769 1.767308,0.223484 2.576512,-0.990348 3.599172,-1.88666 -1.00585,2.082153 -0.875618,4.535751 -6.615737,5.057965 -4.771125,-0.180206 -6.612916,-2.487593 -8.4809,-4.769464 -2.225741,2.556526 -4.861769,4.518992 -8.882464,4.476147 -5.011637,-0.6149 -5.293405,-3.19385 -6.225825,-5.502944 z"
       id="path4542"
       inkscape:connector-curvature="0"
       sodipodi:nodetypes="ccccccccccccc" />
    <g
       id="g1600"
       transform="translate(0.14869518,-0.21076394)"
       style="opacity:0.177057">
      <g
         style="fill:#ffffff;fill-opacity:0.238938;stroke-width:10.8091;stroke-miterlimit:4;stroke-dasharray:none"
         transform="matrix(0.02591305,0.01993106,-0.01993106,0.02591305,35.989974,-26.227673)"
         id="g5940">
        <g
           style="fill:#ffffff;fill-opacity:0.238938;stroke-width:10.8091;stroke-miterlimit:4;stroke-dasharray:none"
           id="g5933"
           transform="translate(-54.137863,7.7339804)">
          <g
             id="g5923"
             style="fill:#ffffff;fill-opacity:0.238938;stroke:#000000;stroke-width:10.8091;stroke-miterlimit:4;stroke-dasharray:none">
            <path
               style="fill:#ffffff;fill-opacity:0.238938;stroke:#000000;stroke-width:10.8091;stroke-linecap:butt;stroke-linejoin:miter;stroke-miterlimit:4;stroke-dasharray:none;stroke-opacity:1"
               d="m 1165.625,491.26965 c -5.3996,-126.58217 -29.0204,-213.68507 -51.5625,-303.125 17.2975,-35.12876 129.6431,-46.49547 279.6875,-48.4375 129.4323,4.26238 263.6611,6.72605 301.5625,45.3125 -23.3722,123.05934 -62.9626,288.28617 -45.3125,304.6875 101.0172,18.26699 153.8405,50.70869 154.6875,98.4375 -14.9137,130.84205 -315.8117,183.55006 -409.375,173.4375 -150.2035,-10.95849 -366.4917,-52.20548 -393.75,-182.8125 30.1703,-64.99947 96.3677,-77.344 164.0625,-87.5 z"
               id="path5901"
               inkscape:connector-curvature="0"
               sodipodi:nodetypes="ccccccccc" />
            <path
               style="fill:#ffffff;fill-opacity:0.238938;stroke:#000000;stroke-width:10.8091;stroke-linecap:butt;stroke-linejoin:miter;stroke-miterlimit:4;stroke-dasharray:none;stroke-opacity:1"
               d="m 1165.625,491.26965 1.1012,84.3471 c 24.7073,52.53135 114.1538,75.82568 229.8097,87.28349 179.4095,-3.27273 232.7705,-48.55983 247.4874,-83.96893 L 1650,489.70715 c -37.1755,79.65676 -145.2258,72.43825 -239.101,82.59504 -120.0053,-9.35782 -228.1819,-12.77622 -245.274,-81.03254 z"
               id="path5903"
               inkscape:connector-curvature="0"
               sodipodi:nodetypes="ccccccc" />
            <path
               style="fill:#ffffff;fill-opacity:0.238938;stroke:#000000;stroke-width:10.8091;stroke-linecap:butt;stroke-linejoin:miter;stroke-miterlimit:4;stroke-dasharray:none;stroke-opacity:1"
               d="m 1114.0625,188.14465 c 41.7595,62.47826 561.3666,62.66123 581.25,-3.125"
               id="path5905"
               inkscape:connector-curvature="0"
               sodipodi:nodetypes="cc" />
          </g>
        </g>
      </g>
      <path
         sodipodi:nodetypes="ccccccc"
         inkscape:connector-curvature="0"
         id="path5964"
         d="m 54.846323,8.8561504 -1.652591,2.2076386 c -0.349937,1.621898 1.17174,3.946354 4.215418,6.842133 2.507482,1.381155 4.572042,3.850723 8.086743,2.756796 l 1.933206,-2.192949 c -2.017331,1.313595 -4.923424,-0.63285 -7.842042,-2.625247 -2.723272,-2.415218 -5.591036,-4.841278 -4.740734,-6.9883716 z"
         style="fill:#000000;stroke:#000000;stroke-width:0.0326915px;stroke-linecap:butt;stroke-linejoin:miter;stroke-opacity:1" />
    </g>
    <path
       style="opacity:0.177057;fill:#000000;stroke-width:0.0579061"
       d="m 29.778135,29.788604 c -0.198833,-0.132319 -0.375151,-0.456388 -0.413312,-0.759649 -0.01744,-0.138526 -0.169504,-2.609867 -0.337938,-5.491863 -0.168434,-2.882004 -0.316279,-5.40028 -0.328544,-5.59618 -0.01875,-0.299429 -0.05281,-0.385647 -0.213763,-0.541149 -0.268417,-0.259321 -0.582186,-0.876574 -0.654146,-1.286844 -0.09493,-0.541247 -0.05927,-0.881565 0.17201,-1.641386 l 0.21178,-0.695831 -0.312113,-0.207832 c -1.26844,-0.844635 -2.046277,-2.313858 -2.065607,-3.9016247 -0.0079,-0.650819 0.293269,-1.7431137 0.639699,-2.319933 C 27.007259,6.462087 27.878053,5.7158784 28.791687,5.3620969 29.316235,5.1589805 30.184509,5.001769 30.604525,5.033861 l 0.305053,0.023308 0.325643,-0.5511703 C 31.816873,3.5215171 32.71243,2.6560593 33.714675,2.1098895 35.549852,1.1098141 37.789842,1.0481001 39.61749,1.9472606 42.017254,3.12789 43.449041,5.5591175 43.293186,8.1887299 l -0.03788,0.6390597 0.266021,0.1511087 c 0.366274,0.208056 0.998545,0.823562 1.320095,1.2850927 0.560066,0.803877 0.865341,1.909279 0.811744,2.93933 -0.02227,0.427946 -0.06376,0.611739 -0.274953,1.217777 -0.282815,0.81161 -0.515104,1.193458 -1.072934,1.76379 -0.904985,0.925266 -2.266994,1.453323 -3.539481,1.372274 l -0.422906,-0.02693 -4.421953,5.80281 c -2.432076,3.191549 -4.526936,5.933519 -4.655247,6.093272 -0.454205,0.565496 -0.987182,0.6953 -1.487582,0.362289 z m 5.008676,-8.291627 c 1.938896,-2.546414 3.545269,-4.657788 3.569722,-4.691947 0.02445,-0.03416 0.01083,-0.07237 -0.03027,-0.08493 -0.0411,-0.01255 -0.272908,-0.210092 -0.515132,-0.438977 l -0.440401,-0.416154 -0.353735,0.05692 c -0.987764,0.158953 -1.639126,0.109389 -2.66059,-0.202448 l -0.733822,-0.224025 -0.152667,0.498291 c -0.218077,0.711848 -0.440226,1.136179 -0.792542,1.513796 -0.402048,0.430919 -0.948376,0.722586 -1.502965,0.802387 -0.234656,0.03377 -0.426177,0.08878 -0.425604,0.122259 0.0094,0.547786 0.452456,7.676249 0.477579,7.683923 0.01933,0.0059 1.621514,-2.072696 3.560408,-4.619108 z M 30.762418,16.3289 c 0.12119,-0.0043 0.290969,-0.07158 0.3961,-0.15702 0.178454,-0.145029 0.195791,-0.188147 0.575399,-1.431056 0.372301,-1.218984 0.401198,-1.29169 0.591341,-1.490122 0.109968,-0.114729 0.300721,-0.238677 0.423898,-0.275442 0.372443,-0.11116 0.583178,-0.05627 1.065655,0.277572 0.324003,0.224189 0.581718,0.351806 1.032788,0.511422 0.893769,0.316272 1.515995,0.313957 2.412601,-0.009 0.649869,-0.234063 1.03519,-0.11982 1.405018,0.416572 0.493919,0.716362 0.923752,1.05696 1.591102,1.260782 0.958133,0.292631 1.988978,0.0089 2.673891,-0.736053 0.887154,-0.964879 0.961605,-2.294441 0.188458,-3.36556 C 42.848595,10.95686 42.449068,10.65264 41.930893,10.426589 41.486432,10.232697 41.367645,10.143572 41.216754,9.8907883 41.061119,9.6300503 41.054224,9.4223563 41.180684,8.8040766 41.383901,7.8104954 41.319644,7.0059338 40.965235,6.1065948 40.485087,4.8881865 39.416499,3.9144543 38.127519,3.5207754 36.838539,3.1270966 35.408256,3.3376259 34.329292,4.079852 33.532881,4.6277086 33.03006,5.2590738 32.643471,6.1966498 32.40291,6.7800809 32.281146,6.9484801 32.006392,7.0777649 c -0.26638,0.1253421 -0.414694,0.1328868 -0.891643,0.045365 -1.354084,-0.2484804 -2.528841,0.3492367 -3.061748,1.5578219 -0.286427,0.649593 -0.236276,1.5964922 0.119686,2.2597792 0.312713,0.582693 0.800976,0.995037 1.549198,1.30832 0.348961,0.146113 0.560039,0.371769 0.663047,0.708848 0.06546,0.214191 0.05335,0.27621 -0.24518,1.255703 -0.172723,0.56671 -0.327349,1.130243 -0.343648,1.252286 -0.06595,0.494236 0.370505,0.884036 0.966309,0.863009 z"
       id="path929" />
    <path
       id="path929-0"
       d="m 47.124945,14.61291 c -0.09696,-0.06452 -0.182943,-0.222557 -0.201552,-0.370442 -0.0085,-0.06755 -0.08266,-1.272702 -0.164795,-2.678108 -0.08214,-1.40541 -0.154234,-2.6334468 -0.160215,-2.7289778 -0.0091,-0.146016 -0.02575,-0.188061 -0.104241,-0.263891 -0.130894,-0.126458 -0.283903,-0.427462 -0.318995,-0.62753 -0.04629,-0.263939 -0.0289,-0.429895 0.08388,-0.800422 L 46.362303,6.8042171 46.210101,6.7028678 C 45.591546,6.2909815 45.212233,5.5745152 45.202807,4.8002405 c -0.0039,-0.317372 0.143013,-0.8500297 0.311949,-1.1313156 0.258971,-0.4311924 0.683614,-0.7950813 1.129147,-0.9676026 0.255796,-0.09905 0.67921,-0.175714 0.884031,-0.1600644 l 0.148759,0.011367 0.1588,-0.2687786 c 0.283643,-0.4800823 0.720361,-0.902123 1.209106,-1.1684628 0.894924,-0.48768675 1.987256,-0.51778165 2.878508,-0.079306 1.170246,0.5757344 1.868457,1.7613225 1.792454,3.0436535 l -0.01847,0.3116377 0.129725,0.073688 c 0.178613,0.1014586 0.48694,0.4016101 0.643744,0.6266758 0.273117,0.3920107 0.421984,0.9310601 0.395847,1.4333645 -0.01086,0.2086875 -0.03109,0.2983141 -0.13408,0.5938492 -0.137915,0.395782 -0.251191,0.58199 -0.523217,0.860112 -0.441316,0.451206 -1.1055,0.708714 -1.726028,0.66919 l -0.20623,-0.01313 -2.156366,2.8297398 c -1.186002,1.55636 -2.207561,2.893482 -2.270132,2.971386 -0.221493,0.275764 -0.481399,0.339062 -0.725419,0.17667 z m 2.442481,-4.043412 c 0.945503,-1.2417588 1.728851,-2.2713708 1.740776,-2.2880288 0.01192,-0.01666 0.0053,-0.03529 -0.01476,-0.04142 -0.02004,-0.0061 -0.133083,-0.102451 -0.251204,-0.214067 l -0.214761,-0.202938 -0.172499,0.02776 c -0.481683,0.07751 -0.79932,0.05334 -1.297437,-0.09872 l -0.357849,-0.109246 -0.07445,0.242991 c -0.106345,0.347133 -0.214676,0.554058 -0.386483,0.738203 -0.196059,0.210138 -0.462476,0.352369 -0.732921,0.391284 -0.11443,0.01647 -0.207825,0.04329 -0.207546,0.05962 0.0046,0.267128 0.22064,3.7433238 0.232892,3.7470658 0.0094,0.0029 0.790731,-1.01075 1.736233,-2.252509 z M 47.604931,8.0492842 c 0.0591,-0.0021 0.141891,-0.03491 0.193158,-0.07657 0.08702,-0.07072 0.09548,-0.09175 0.280593,-0.697855 0.181553,-0.5944379 0.195644,-0.629893 0.288368,-0.7266584 0.05363,-0.055948 0.146646,-0.1163908 0.206714,-0.1343193 0.181621,-0.054207 0.284386,-0.02744 0.519666,0.135358 0.158,0.1093258 0.283675,0.1715583 0.50364,0.249395 0.435846,0.1542301 0.739275,0.1531012 1.176505,-0.00439 0.316908,-0.1141409 0.50481,-0.05843 0.685157,0.2031413 0.24086,0.3493344 0.450468,0.5154274 0.775901,0.6148214 0.467234,0.142701 0.969925,0.0043 1.303923,-0.358937 0.432621,-0.4705236 0.468927,-1.1188846 0.0919,-1.6412159 C 53.498756,5.429609 53.303927,5.2812561 53.051239,5.1710223 52.834497,5.0764713 52.776571,5.033009 52.702989,4.9097389 52.627089,4.78259 52.623729,4.681308 52.685399,4.3798037 52.784499,3.8952838 52.753159,3.5029391 52.580335,3.0643763 52.346191,2.4702195 51.825094,1.995379 51.196523,1.8034014 c -0.628571,-0.1919776 -1.326049,-0.089313 -1.852206,0.272634 -0.38837,0.267162 -0.633571,0.5750472 -0.822091,1.0322567 -0.117309,0.2845102 -0.176688,0.36663 -0.310671,0.4296758 -0.129901,0.061123 -0.202226,0.064802 -0.43481,0.022125 -0.660319,-0.1211718 -1.23319,0.170305 -1.493062,0.7596721 -0.139676,0.3167736 -0.11522,0.7785295 0.05837,1.1019815 0.152495,0.2841498 0.390596,0.4852294 0.755467,0.6380018 0.17017,0.071252 0.273103,0.1812932 0.323335,0.3456698 0.03192,0.1044503 0.02602,0.1346939 -0.119563,0.6123437 -0.08423,0.2763564 -0.159631,0.5511634 -0.16758,0.6106774 -0.03216,0.241014 0.180677,0.4311 0.471221,0.420846 z"
       style="opacity:0.177057;fill:#000000;stroke-width:0.028238" />
    <path
       style="fill:#000000;stroke-width:0.10206;opacity:0.17"
       d="m 45.054101,35.092825 c -3.525042,-3.681117 -5.034496,-5.162411 -5.274656,-5.17626 -0.144474,-0.0083 -0.393409,-0.154932 -0.553187,-0.325784 -0.220955,-0.236262 -0.361309,-0.297737 -0.586232,-0.256754 -0.408357,0.0744 -0.903996,-0.299466 -1.013818,-0.764751 -0.08537,-0.361667 0.122342,-0.926902 0.377871,-1.028258 0.105882,-0.042 0.09696,-0.110107 -0.03763,-0.287013 -0.09705,-0.127567 -0.32609,-0.617268 -0.508993,-1.088208 -0.435724,-1.122094 -0.445422,-1.844968 -0.03859,-2.896144 0.351321,-0.907731 0.969509,-1.64431 1.813545,-2.160845 0.442869,-0.271027 0.625895,-0.45502 0.799899,-0.804107 0.227112,-0.455631 0.698024,-0.844743 1.026788,-0.848429 0.114362,-0.0013 0.262813,-0.175184 0.418084,-0.489796 0.253862,-0.514381 0.598542,-0.71394 0.76916,-0.445312 0.06123,0.09637 -9.49e-4,0.248069 -0.180766,0.441051 -0.150744,0.161784 -0.257945,0.334817 -0.238224,0.384532 0.01971,0.04971 0.209804,0.195027 0.4224,0.322923 0.294351,0.177068 0.437241,0.349975 0.599073,0.724913 0.167452,0.388078 0.316059,0.561783 0.701187,0.819945 0.8692,0.582645 1.245536,1.103665 1.654214,2.290159 0.271758,0.788988 0.385997,1.027198 0.475635,0.991642 0.06488,-0.02574 0.275153,0.02111 0.467279,0.104112 0.522236,0.2256 0.740767,0.832416 0.476585,1.323371 -0.106953,0.198762 -0.276571,0.393954 -0.376926,0.433762 -0.121514,0.04819 -0.156332,0.138245 -0.10424,0.269564 0.04303,0.108452 -0.01783,0.42576 -0.135219,0.705123 -0.177164,0.421621 -0.223706,1.138271 -0.27389,4.217375 -0.06495,3.985365 -0.09682,4.151525 -0.679352,3.543198 z m 0.168862,-4.020647 c 0.02817,-1.717682 0.01834,-3.137267 -0.02186,-3.154628 -0.0402,-0.01734 -0.140415,0.124369 -0.222747,0.31493 -0.12621,0.292163 -0.221458,0.369724 -0.607471,0.494656 -0.369567,0.119615 -0.48246,0.205503 -0.585707,0.445944 -0.175137,0.407703 -0.811316,0.663426 -1.2343,0.496204 -0.242298,-0.09582 -0.396695,-0.0773 -0.764531,0.09169 -0.399268,0.183422 -0.506781,0.18981 -0.803657,0.04798 -0.188508,-0.09008 -0.35693,-0.130922 -0.374275,-0.09076 -0.01736,0.04014 0.983612,1.110617 2.224359,2.378803 1.240745,1.268185 2.274588,2.259106 2.297438,2.202039 0.02284,-0.05707 0.06458,-1.509125 0.09276,-3.22681 z m -6.328683,-4.73519 c -0.390673,-1.124287 -0.427396,-1.306299 -0.381915,-1.892839 0.05664,-0.730565 0.303148,-1.200161 0.959203,-1.827348 0.764007,-0.730387 0.419389,-1.067465 -0.405332,-0.396459 -0.557604,0.453676 -1.049115,1.419255 -1.121508,2.203215 -0.05355,0.57984 0.218517,1.73592 0.473766,2.013208 0.114705,0.124611 0.523936,0.03879 0.475788,-0.09977 z m 3.484338,-4.977262 c 0.08129,-0.235212 0.06695,-0.454444 -0.04879,-0.746246 -0.136817,-0.344923 -0.228214,-0.434638 -0.553206,-0.543014 -0.671992,-0.224093 -1.307382,0.158018 -1.37419,0.826413 -0.04914,0.491635 0.232779,0.902972 0.733268,1.069874 0.334864,0.111664 0.460518,0.100129 0.764284,-0.07016 0.240099,-0.134604 0.402621,-0.316894 0.478641,-0.536864 z"
       id="path1631" />
    <path
       style="fill:#000000;stroke-width:0.0148929;opacity:0.17"
       d="m 64.409555,22.796424 c 0.01098,-0.0014 0.09726,0.03614 0.191631,0.08342 0.267438,0.133994 0.500611,0.224818 0.777608,0.302888 0.254847,0.07182 0.544893,0.121087 0.584034,0.09919 0.01143,-0.0064 0.05399,-0.06898 0.09457,-0.139091 0.201228,-0.347626 0.279813,-0.66001 0.266884,-1.060919 -0.0055,-0.171908 0.0064,-0.216833 0.06659,-0.250465 0.07703,-0.04305 0.106031,-0.02554 0.334566,0.202032 0.116495,0.116004 0.212801,0.212687 0.214009,0.21485 0.0012,0.0021 0.02886,-0.01455 0.06148,-0.0371 0.05469,-0.03788 0.06377,-0.03933 0.117293,-0.01907 0.0319,0.01206 0.06073,0.02682 0.06407,0.0328 0.0033,0.0059 0.02625,0.08168 0.05091,0.168247 l 0.04484,0.157394 0.09041,0.0799 c 0.223747,0.197734 0.485242,0.408477 0.670612,0.540455 0.199431,0.141991 2.123791,1.448149 2.288415,1.553261 0.04703,0.03003 0.29151,0.192815 0.543307,0.361757 0.251797,0.168943 0.527286,0.352795 0.612196,0.408563 0.08491,0.05577 0.304673,0.201666 0.488362,0.324217 0.18369,0.122553 0.397237,0.264247 0.47455,0.314877 0.07731,0.05063 0.309512,0.204934 0.515995,0.342897 0.206483,0.137965 0.382934,0.254326 0.39211,0.258581 0.0092,0.0042 0.134975,0.0875 0.279552,0.184994 0.295808,0.199471 0.397365,0.294455 0.487725,0.456154 0.101584,0.181783 0.15003,0.412067 0.127785,0.607379 l -0.0099,0.08681 0.161091,-0.08309 c 0.146993,-0.07584 0.170728,-0.08379 0.271356,-0.09103 0.253734,-0.01824 0.478466,0.100066 0.468134,0.246453 -0.0063,0.08982 -0.04538,0.127799 -0.244161,0.237498 -0.18833,0.103902 -0.349595,0.165695 -0.679294,0.260176 -0.200359,0.05742 -0.202069,0.05858 -0.188105,0.1277 0.02203,0.109092 0.02275,0.375733 0.0013,0.498268 -0.0438,0.250725 -0.16155,0.434496 -0.343539,0.536192 -0.152962,0.08547 -0.279522,0.08934 -0.345228,0.01054 -0.06181,-0.07413 -0.04385,-0.24055 0.04948,-0.458375 0.04765,-0.111222 0.03642,-0.126074 -0.05648,-0.07463 -0.07681,0.04253 -0.26014,0.08326 -0.389919,0.08659 -0.128099,0.0033 -0.335731,-0.04051 -0.443018,-0.09348 -0.03949,-0.01949 -0.221104,-0.1378 -0.403593,-0.262902 -1.140442,-0.781811 -2.431854,-1.657888 -2.444702,-1.658454 -0.0083,-3.93e-4 0.05388,0.124387 0.138177,0.277228 0.08431,0.15284 0.456412,0.830157 0.826918,1.505143 0.669452,1.219613 0.673801,1.22796 0.698918,1.340803 0.04279,0.192279 0.03847,0.329641 -0.01643,0.521416 -0.03074,0.107373 -0.07116,0.206234 -0.106741,0.261111 -0.0315,0.04857 -0.0549,0.09256 -0.05201,0.09775 0.0029,0.0052 0.03718,0.0044 0.07619,-0.0017 0.247253,-0.03855 0.509464,0.06609 0.639613,0.255231 0.126107,0.183266 0.03548,0.316881 -0.223912,0.330137 -0.188709,0.0096 -0.513271,-0.02987 -0.850312,-0.103536 l -0.140662,-0.03074 -0.0388,0.106486 c -0.04454,0.122266 -0.135708,0.2977 -0.199439,0.383826 -0.180344,0.243712 -0.421347,0.364111 -0.667585,0.333511 -0.105433,-0.0131 -0.160112,-0.04395 -0.197947,-0.111651 -0.05644,-0.100997 0.0281,-0.245998 0.246088,-0.4221 0.04363,-0.03526 0.0772,-0.06793 0.07458,-0.07261 -0.0027,-0.0047 -0.05088,-0.01204 -0.107229,-0.01635 -0.216921,-0.01658 -0.440523,-0.116132 -0.61492,-0.273793 -0.08645,-0.07814 -0.09732,-0.09398 -0.230868,-0.336368 -0.07708,-0.139903 -0.304806,-0.565408 -0.506056,-0.945569 -0.588479,-1.11166 -0.984553,-1.845908 -0.998587,-1.851201 -0.01333,-0.005 -0.01291,0.09073 0.0041,0.94823 0.0053,0.269126 0.01118,0.569117 0.01295,0.666649 0.0018,0.09754 0.01031,0.521315 0.01907,0.94174 0.0088,0.420425 0.0099,0.814424 0.0025,0.875552 -0.02294,0.191373 -0.128277,0.408535 -0.272034,0.560827 -0.03599,0.03813 -0.122667,0.105765 -0.192613,0.150308 l -0.127173,0.08098 0.104568,0.04586 c 0.197752,0.08675 0.338102,0.225601 0.393336,0.389136 0.08946,0.264888 -0.0094,0.412783 -0.231358,0.345866 -0.159659,-0.04815 -0.42195,-0.215147 -0.738849,-0.470414 -0.105732,-0.08516 -0.173929,-0.130917 -0.182502,-0.122429 -0.06355,0.06294 -0.287429,0.231487 -0.365167,0.274927 -0.128299,0.07169 -0.295448,0.122952 -0.417738,0.128103 -0.188772,0.008 -0.393908,-0.08059 -0.482159,-0.208109 -0.03779,-0.05466 -0.03924,-0.06417 -0.01985,-0.132705 l 0.0209,-0.07383 0.123459,-0.06091 c 0.0823,-0.04063 0.164247,-0.06888 0.245829,-0.08485 0.06731,-0.01317 0.123241,-0.02704 0.124309,-0.0308 0.001,-0.0037 -0.03338,-0.02749 -0.07657,-0.05269 -0.254327,-0.148492 -0.45376,-0.456065 -0.484299,-0.746908 -0.0041,-0.03848 -0.0082,-0.386196 -0.0092,-0.7727 -0.0068,-2.618478 -0.0502,-4.991249 -0.111131,-6.066888 -0.03005,-0.530492 -0.03706,-0.576686 -0.0961,-0.63395 -0.06342,-0.0615 -0.06443,-0.06611 -0.03607,-0.163633 0.02027,-0.06973 0.02071,-0.10592 0.0021,-0.168605 -0.02225,-0.07472 -0.03353,-0.09021 -0.176837,-0.242527 -0.177019,-0.188167 -0.190378,-0.208324 -0.180295,-0.272018 0.01,-0.06294 0.05058,-0.09852 0.121745,-0.106652 0.03202,-0.0037 0.06253,-0.0091 0.0678,-0.01201 0.0053,-0.003 -0.03034,-0.14977 -0.07912,-0.326289 -0.09778,-0.353799 -0.09953,-0.393928 -0.0191,-0.436385 0.02387,-0.01263 0.05245,-0.02404 0.06346,-0.02546 z m 0.700345,10.32547 c -3.4e-4,0.008 0.03513,0.03263 0.07884,0.05476 0.137369,0.06953 0.291068,0.06147 0.47516,-0.02492 0.113213,-0.05313 0.268668,-0.157302 0.259396,-0.173895 -0.01301,-0.02329 -0.496769,0.0385 -0.676765,0.08645 -0.122119,0.03252 -0.135777,0.03829 -0.136627,0.05762 z m 9.161069,-4.808524 c -0.08655,0.08561 -0.123038,0.133377 -0.105643,0.1383 0.01472,0.0042 0.176089,-0.04646 0.372218,-0.116763 0.194911,-0.06987 0.396168,-0.176423 0.381797,-0.20214 -0.01599,-0.02862 -0.134743,-0.05162 -0.229573,-0.04445 -0.118987,0.009 -0.29711,0.1047 -0.418803,0.225064 z m -7.786055,4.662003 c 0.0093,0.01668 0.251977,0.194546 0.393993,0.288797 0.301107,0.199833 0.365385,0.202426 0.25899,0.01042 -0.04907,-0.08851 -0.06732,-0.10877 -0.148951,-0.165077 -0.09714,-0.06701 -0.261992,-0.124548 -0.403728,-0.140904 -0.0699,-0.0081 -0.107173,-0.0055 -0.100298,0.0068 z m 7.231256,-3.847481 c -0.143,0.263945 -0.251106,0.537433 -0.216332,0.547276 0.0068,0.0019 0.05069,-0.0181 0.09738,-0.04455 0.10898,-0.06177 0.176187,-0.151466 0.217524,-0.290505 0.02956,-0.09945 0.04927,-0.295659 0.03931,-0.391401 -0.0063,-0.0611 -0.01098,-0.05513 -0.137895,0.179176 z m -2.834496,2.525999 c 0.0061,0.01087 0.244557,0.05404 0.438941,0.07944 0.104568,0.01366 0.364108,0.02056 0.382707,0.0102 0.01956,-0.01098 -0.02374,-0.0646 -0.09175,-0.11372 -0.14079,-0.101673 -0.337835,-0.116644 -0.572668,-0.0435 -0.151633,0.04724 -0.165331,0.05312 -0.157233,0.06761 z m -0.754745,0.424514 c -0.15645,0.10826 -0.325427,0.247473 -0.371862,0.306369 l -0.0347,0.04401 0.05278,0.01076 c 0.06402,0.01303 0.189325,-0.01323 0.265019,-0.05552 0.111108,-0.06209 0.321634,-0.331816 0.341126,-0.437056 0.0048,-0.0261 -0.0022,-0.0253 -0.05974,0.0068 -0.03587,0.02005 -0.12255,0.07612 -0.192627,0.124611 z"
       id="path1663" />
  </g>
</svg>
